<svg width="24" height="24" viewBox="0 0 24 24" fill="none" xmlns="http://www.w3.org/2000/svg">
<path d="M23.4353 9.26733L21.5907 8.86633C21.4303 8.37524 21.2316 7.89624 20.9971 7.43481L22.0182 5.84637C22.2006 5.56256 22.1605 5.18994 21.9221 4.95154L19.0485 2.07788C18.8101 1.83948 18.4374 1.79938 18.1536 1.98175L16.5652 3.00293C16.1038 2.76837 15.6248 2.5697 15.1337 2.4093L14.7327 0.564697C14.6611 0.235107 14.3692 0 14.0319 0H9.96808C9.6308 0 9.33893 0.235107 9.26733 0.564697L8.86633 2.4093C8.37524 2.5697 7.89624 2.76837 7.43481 3.00293L5.84637 1.98175C5.56256 1.79938 5.18994 1.83948 4.95154 2.07788L2.07788 4.95154C1.83948 5.18994 1.79938 5.56256 1.98175 5.84637L3.00293 7.43481C2.76837 7.89624 2.5697 8.37524 2.4093 8.86633L0.564697 9.26733C0.235107 9.33911 0 9.6308 0 9.96808V14.0319C0 14.3692 0.235107 14.6609 0.564697 14.7327L2.4093 15.1337C2.5697 15.6248 2.76837 16.1038 3.00293 16.5652L1.98175 18.1536C1.79938 18.4374 1.83948 18.8101 2.07788 19.0485L4.95154 21.9221C5.18994 22.1605 5.56256 22.2006 5.84637 22.0182L7.43481 20.9971C7.89624 21.2316 8.37524 21.4303 8.86633 21.5907L9.26733 23.4353C9.33893 23.7649 9.6308 24 9.96808 24H14.0319C14.3692 24 14.6611 23.7649 14.7327 23.4353L15.1337 21.5907C15.6248 21.4303 16.1038 21.2316 16.5652 20.9971L18.1536 22.0182C18.4374 22.2006 18.8101 22.1607 19.0485 21.9221L21.9221 19.0485C22.1605 18.8101 22.2006 18.4374 22.0182 18.1536L20.9971 16.5652C21.2316 16.1038 21.4303 15.6248 21.5907 15.1337L23.4353 14.7327C23.7649 14.6609 24 14.3692 24 14.0319V9.96808C24 9.6308 23.7649 9.33911 23.4353 9.26733ZM16.3028 12C16.3028 14.3725 14.3725 16.3028 12 16.3028C9.6275 16.3028 7.6972 14.3725 7.6972 12C7.6972 9.6275 9.6275 7.6972 12 7.6972C14.3725 7.6972 16.3028 9.6275 16.3028 12Z" fill="white"/>
</svg>
