<svg width="36" height="36" viewBox="0 0 36 36" fill="none" xmlns="http://www.w3.org/2000/svg">
<path d="M35.3837 6.43909C35.056 3.36896 32.6313 0.943726 29.5609 0.616333C21.8611 -0.205444 14.1389 -0.205444 6.43936 0.616333C3.36896 0.944 0.944 3.36896 0.616333 6.43909C-0.205444 14.1386 -0.205444 21.8611 0.616333 29.5606C0.944 32.631 3.36896 35.056 6.43909 35.3837C14.1386 36.2054 21.8611 36.2054 29.5609 35.3837C32.6313 35.056 35.056 32.631 35.3837 29.5606C36.2054 21.8611 36.2054 14.1389 35.3837 6.43909Z" fill="url(#paint0_radial)"/>
<path d="M33.4256 7.7412C33.135 5.01686 30.9833 2.86491 28.2587 2.57405C21.4263 1.84511 14.5736 1.84511 7.7412 2.57405C5.01686 2.86491 2.86491 5.01686 2.57405 7.7412C1.84511 14.5736 1.84511 21.4263 2.57405 28.2584C2.86491 30.983 5.01686 33.135 7.7412 33.4256C14.5736 34.1548 21.4263 34.1548 28.2584 33.4256C30.983 33.135 33.135 30.983 33.4256 28.2584C34.1548 21.4263 34.1548 14.5736 33.4256 7.7412Z" fill="url(#paint1_linear)"/>
<path d="M0.539551 28.8145C0.56427 29.0633 0.589813 29.3121 0.616455 29.561C0.944122 32.6311 3.36908 35.0561 6.43948 35.3837C14.139 36.2055 21.8615 36.2055 29.561 35.3837C32.6314 35.0561 35.0561 32.6311 35.3838 29.561C35.4104 29.3121 35.436 29.0633 35.461 28.8145H0.539551Z" fill="url(#paint2_linear)"/>
<path d="M35.3837 29.5608C35.8253 25.4236 36.0291 21.2799 35.9962 17.1366L27.7674 8.90788C26.7394 7.73426 25.2378 7.00175 23.4734 6.9383C19.8449 6.80757 16.2049 6.81416 12.5758 6.93885C9.56171 7.04267 7.45398 9.06855 6.91345 12.0461C6.81815 12.5718 6.76102 13.1044 6.68604 13.6339V22.3631C6.72751 22.646 6.78848 22.9275 6.80743 23.2121C6.92828 25.0232 7.67261 26.5744 8.86435 27.6239L17.2381 35.9974C21.3476 36.0263 25.4573 35.8219 29.5609 35.3838C32.6313 35.0562 35.056 32.6312 35.3837 29.5608Z" fill="url(#paint3_linear)"/>
<path d="M35.3839 29.5608C35.0565 32.6306 32.631 35.0562 29.5611 35.3835C25.458 35.8214 21.3475 36.026 17.2386 35.9971L8.87744 27.636C9.84671 28.4844 11.1101 29.001 12.5763 29.0562C16.2045 29.1925 19.8454 29.1889 23.4736 29.0582C26.7552 28.9395 29.1299 26.5107 29.2324 23.2291C29.3417 19.7448 29.3417 16.2514 29.2324 12.7671C29.1857 11.2532 28.6542 9.92108 27.7731 8.91309L35.9966 17.1366C36.0291 21.2793 35.8253 25.4236 35.3839 29.5608Z" fill="url(#paint4_linear)"/>
<path d="M22.2479 14.1013C21.1938 12.9536 19.6812 12.2334 18.0001 12.2334C14.8157 12.2334 12.2339 14.8152 12.2339 17.9996C12.2339 19.6808 12.954 21.1933 14.1018 22.2474L27.4428 35.5884C28.149 35.5269 28.8551 35.4585 29.5607 35.3832C32.6311 35.0556 35.0561 32.6306 35.3837 29.5602C35.459 28.8546 35.5274 28.1485 35.5889 27.4423L22.2479 14.1013Z" fill="url(#paint5_linear)"/>
<path d="M35.9302 21.8775L25.1933 11.1408C24.9428 10.812 24.5481 10.5986 24.1029 10.5986C23.3454 10.5986 22.731 11.2128 22.731 11.9706C22.731 12.4158 22.9444 12.8105 23.2731 13.0609L35.7382 25.5263C35.8228 24.3104 35.8868 23.0939 35.9302 21.8775Z" fill="url(#paint6_linear)"/>
<path d="M6.68604 13.6339C6.76102 13.1044 6.81815 12.5718 6.91345 12.0461C7.4537 9.06855 9.56171 7.04267 12.5758 6.93885C16.2049 6.81416 19.8449 6.80757 23.4734 6.9383C26.7539 7.05641 29.1297 9.48548 29.2322 12.7671C29.3412 16.2517 29.3412 19.7448 29.2322 23.2294C29.1297 26.511 26.7548 28.9398 23.4737 29.0582C19.8452 29.1892 16.2043 29.1925 12.5761 29.0563C9.29501 28.9329 7.02689 26.4984 6.80743 23.2118C6.78848 22.9275 6.72751 22.6457 6.68604 22.3628C6.68604 19.4531 6.68604 16.5434 6.68604 13.6339ZM18.0031 27.1133C19.6636 27.1133 21.3259 27.163 22.9843 27.1018C25.5844 27.0054 27.1838 25.4536 27.2445 22.8558C27.3197 19.619 27.3197 16.3778 27.2445 13.1406C27.1838 10.5435 25.5833 8.95539 22.9843 8.90019C19.6853 8.83043 16.3828 8.83097 13.0839 8.90019C10.5046 8.9543 8.9006 10.5102 8.83057 13.0788C8.74158 16.3566 8.74158 19.6401 8.83057 22.9179C8.9006 25.4862 10.5046 27.0062 13.0842 27.1018C14.7217 27.1628 16.3633 27.1133 18.0031 27.1133Z" fill="url(#paint7_linear)"/>
<path d="M6.68604 13.6339C6.76102 13.1044 6.81815 12.5718 6.91345 12.0461C7.4537 9.06855 9.56171 7.04267 12.5758 6.93885C16.2049 6.81416 19.8449 6.80757 23.4734 6.9383C26.7539 7.05641 29.1297 9.48548 29.2322 12.7671C29.3412 16.2517 29.3412 19.7448 29.2322 23.2294C29.1297 26.511 26.7548 28.9398 23.4737 29.0582C19.8452 29.1892 16.2043 29.1925 12.5761 29.0563C9.29501 28.9329 7.02689 26.4984 6.80743 23.2118C6.78848 22.9275 6.72751 22.6457 6.68604 22.3628C6.68604 19.4531 6.68604 16.5434 6.68604 13.6339ZM18.0031 27.1133C19.6636 27.1133 21.3259 27.163 22.9843 27.1018C25.5844 27.0054 27.1838 25.4536 27.2445 22.8558C27.3197 19.619 27.3197 16.3778 27.2445 13.1406C27.1838 10.5435 25.5833 8.95539 22.9843 8.90019C19.6853 8.83043 16.3828 8.83097 13.0839 8.90019C10.5046 8.9543 8.9006 10.5102 8.83057 13.0788C8.74158 16.3566 8.74158 19.6401 8.83057 22.9179C8.9006 25.4862 10.5046 27.0062 13.0842 27.1018C14.7217 27.1628 16.3633 27.1133 18.0031 27.1133Z" fill="white"/>
<path d="M18.0001 12.2344C14.8157 12.2344 12.2339 14.8159 12.2339 18.0003C12.2339 21.1849 14.8157 23.7664 18.0001 23.7664C21.1847 23.7664 23.7662 21.1849 23.7662 18.0003C23.7662 14.8159 21.1847 12.2344 18.0001 12.2344ZM18.0001 21.7812C15.9118 21.7812 14.2191 20.0885 14.2191 18.0003C14.2191 15.912 15.9118 14.2193 18.0001 14.2193C20.0883 14.2193 21.781 15.912 21.781 18.0003C21.781 20.0885 20.0883 21.7812 18.0001 21.7812Z" fill="white"/>
<path d="M25.4745 11.9715C25.4745 12.729 24.8604 13.3432 24.1029 13.3432C23.3454 13.3432 22.731 12.729 22.731 11.9715C22.731 11.2137 23.3454 10.5996 24.1029 10.5996C24.8604 10.5996 25.4745 11.2137 25.4745 11.9715Z" fill="white"/>
<defs>
<radialGradient id="paint0_radial" cx="0" cy="0" r="1" gradientUnits="userSpaceOnUse" gradientTransform="translate(7.3798 31.4611) scale(39.7017)">
<stop stop-color="#FAE100"/>
<stop offset="0.0544" stop-color="#FADC04"/>
<stop offset="0.1167" stop-color="#FBCE0E"/>
<stop offset="0.1829" stop-color="#FCB720"/>
<stop offset="0.2514" stop-color="#FE9838"/>
<stop offset="0.3054" stop-color="#FF7950"/>
<stop offset="0.4922" stop-color="#FF1C74"/>
<stop offset="1" stop-color="#6C1CD1"/>
</radialGradient>
<linearGradient id="paint1_linear" x1="13.8074" y1="15.6417" x2="-47.1809" y2="-18.6642" gradientUnits="userSpaceOnUse">
<stop stop-color="#A1B5D8" stop-opacity="0"/>
<stop offset="0.3094" stop-color="#90A2BD" stop-opacity="0.309804"/>
<stop offset="0.7554" stop-color="#7C8B9C" stop-opacity="0.756863"/>
<stop offset="1" stop-color="#748290"/>
</linearGradient>
<linearGradient id="paint2_linear" x1="18.0001" y1="31.7789" x2="18.0001" y2="37.3904" gradientUnits="userSpaceOnUse">
<stop stop-color="#FAE100" stop-opacity="0"/>
<stop offset="0.3068" stop-color="#FCA800" stop-opacity="0.305882"/>
<stop offset="0.6275" stop-color="#FE7300" stop-opacity="0.627451"/>
<stop offset="0.8685" stop-color="#FF5200" stop-opacity="0.866667"/>
<stop offset="1" stop-color="#FF4500"/>
</linearGradient>
<linearGradient id="paint3_linear" x1="15.952" y1="15.9012" x2="7.04258" y2="6.99177" gradientUnits="userSpaceOnUse">
<stop stop-color="#833AB4" stop-opacity="0"/>
<stop offset="1" stop-color="#833AB4"/>
</linearGradient>
<linearGradient id="paint4_linear" x1="24.6728" y1="32.9263" x2="20.226" y2="11.9627" gradientUnits="userSpaceOnUse">
<stop stop-color="#833AB4" stop-opacity="0"/>
<stop offset="1" stop-color="#833AB4"/>
</linearGradient>
<linearGradient id="paint5_linear" x1="26.3648" y1="26.3643" x2="8.50373" y2="8.50323" gradientUnits="userSpaceOnUse">
<stop stop-color="#833AB4" stop-opacity="0"/>
<stop offset="1" stop-color="#833AB4"/>
</linearGradient>
<linearGradient id="paint6_linear" x1="27.6895" y1="15.5571" x2="21.7832" y2="9.65083" gradientUnits="userSpaceOnUse">
<stop stop-color="#833AB4" stop-opacity="0"/>
<stop offset="1" stop-color="#833AB4"/>
</linearGradient>
<linearGradient id="paint7_linear" x1="25.1479" y1="10.9021" x2="10.5851" y2="25.4649" gradientUnits="userSpaceOnUse">
<stop stop-color="#833AB4"/>
<stop offset="0.0922" stop-color="#9C3495"/>
<stop offset="0.2927" stop-color="#DC2546"/>
<stop offset="0.392" stop-color="#FD1D1D"/>
<stop offset="0.5589" stop-color="#FC6831"/>
<stop offset="0.6887" stop-color="#FC9B40"/>
<stop offset="0.7521" stop-color="#FCAF45"/>
<stop offset="0.7806" stop-color="#FDB750"/>
<stop offset="0.8656" stop-color="#FECB6A"/>
<stop offset="0.9415" stop-color="#FFD87A"/>
<stop offset="1" stop-color="#FFDC80"/>
</linearGradient>
</defs>
</svg>
