<svg width="165" height="121" viewBox="0 0 165 121" fill="none" xmlns="http://www.w3.org/2000/svg">
<g clip-path="url(#clip0)">
<path d="M119.706 59.8515C119.706 75.9929 113.315 90.6419 102.926 101.407C101.187 103.209 99.3355 104.904 97.3835 106.477C94.2789 108.979 90.9171 111.181 87.3476 113.031C87.3451 113.034 87.3425 113.034 87.3399 113.036C85.4293 114.023 83.4591 114.911 81.4367 115.695H81.4341C74.7393 118.286 67.4629 119.706 59.8543 119.706C50.818 119.706 42.2513 117.704 34.57 114.117C29.129 111.578 24.1369 108.245 19.7342 104.271L19.7316 104.268C18.7167 103.349 17.7354 102.399 16.7852 101.415L16.7827 101.413C6.39117 90.647 0 75.9957 0 59.8515C0 58.333 0.0570473 56.8273 0.168804 55.3373C2.47642 24.3887 28.3163 0 59.8543 0C91.413 0 117.269 24.4251 119.542 55.4049C119.651 56.8741 119.706 58.3564 119.706 59.8515Z" fill="#27536B"/>
<path d="M96.2066 38.751L107.476 37.5051L96.2066 36.2594L94.9607 24.9902L93.715 36.2594L82.4458 37.5051L93.715 38.751L94.9607 50.02L96.2066 38.751Z" fill="white"/>
<path d="M109.956 75.8011C109.956 78.223 109.784 80.6061 109.45 82.9373C108.499 89.6063 106.236 95.8546 102.926 101.407C92.0438 112.689 76.7668 119.706 59.8544 119.706C42.942 119.706 27.6676 112.692 16.7827 101.412C16.7437 101.348 16.7049 101.283 16.6684 101.218C12.5746 94.2788 10.1084 86.2678 9.78673 77.7091C9.76335 77.0757 9.75049 76.4398 9.75049 75.8011C9.75049 73.579 9.89591 71.3906 10.1762 69.2465C10.576 66.1832 11.251 63.2083 12.1778 60.3475C18.6936 40.2395 37.5763 25.6997 59.8546 25.6997C62.6011 25.6997 65.2931 25.9204 67.9175 26.3462C73.7714 27.2938 79.2825 29.2509 84.2693 32.0415C84.4509 32.1428 84.6326 32.2466 84.8145 32.3504C87.3402 33.8042 89.7259 35.4733 91.9508 37.3294C101.589 45.3794 108.157 56.9857 109.637 70.1342C109.849 71.9929 109.956 73.8853 109.956 75.8011Z" fill="#F77759"/>
<path d="M97.3836 106.477C87.1193 114.753 74.0643 119.706 59.8544 119.706C42.9446 119.706 27.6701 112.692 16.7853 101.415L16.7827 101.412C13.2393 95.4652 10.8926 88.7236 10.0776 81.5172C9.93215 80.2607 9.83606 78.9914 9.78673 77.709C9.76335 77.0757 9.75049 76.4397 9.75049 75.801C9.75049 73.5789 9.89591 71.3906 10.1762 69.2464C10.576 66.1831 11.251 63.2083 12.1778 60.3475C15.6226 49.7198 22.52 40.647 31.5512 34.4531C28.8618 38.3705 26.7176 42.6899 25.2225 47.303C24.2957 50.1638 23.6207 53.1387 23.2209 56.202C22.9406 58.3461 22.7952 60.5345 22.7952 62.7566C22.7952 63.3951 22.8082 64.0312 22.8314 64.6646C23.2363 75.4741 27.0653 85.4111 33.2671 93.4143C37.2726 98.5827 42.2647 102.947 47.9626 106.223C55.3065 110.444 63.8211 112.858 72.8991 112.858C81.7898 112.858 90.1435 110.54 97.3836 106.477Z" fill="#E0634B"/>
<path d="M34.1365 19.2198L45.4057 17.9739L34.1365 16.7282L32.8906 5.45898L31.6449 16.7282L20.3755 17.9739L31.6449 19.2198L32.8906 30.4892L34.1365 19.2198Z" fill="white"/>
<path d="M76.7069 19.515L78.4199 21.228L80.133 19.515L78.4199 17.8019L76.7069 19.515Z" fill="white"/>
<path d="M11.8353 38.0492L13.5483 39.7622L15.2614 38.0492L13.5483 36.3361L11.8353 38.0492Z" fill="white"/>
<path d="M62.4539 9.33724L64.167 11.0503L65.8801 9.33724L64.167 7.62419L62.4539 9.33724Z" fill="white"/>
<path d="M90.1653 44.5322C86.4401 40.8069 81.6328 39.5743 79.428 41.7791C77.2231 43.9839 78.4557 48.7912 82.181 52.5165C85.9063 56.2418 90.7136 57.4744 92.9184 55.2696C95.1232 53.0648 93.8906 48.2575 90.1653 44.5322Z" fill="#FF9580"/>
<path d="M109.449 82.9374C108.499 89.6063 106.236 95.8546 102.926 101.407C101.187 103.209 99.3357 104.904 97.3837 106.477C97.3785 106.48 97.3759 106.485 97.3706 106.487C87.1091 114.756 74.0592 119.706 59.8545 119.706C42.942 119.706 27.6676 112.692 16.7828 101.413C16.7437 101.348 16.7049 101.283 16.6685 101.218C17.7692 98.57 18.8725 95.8287 19.7785 93.4144C22.2109 86.9272 26.6422 90.9614 30.8863 90.0631C31.8753 89.853 32.854 89.3779 33.7965 88.4354C38.7755 83.4564 46.6464 84.1522 57.1597 86.4886C67.6732 88.8249 78.9627 84.1522 87.5294 80.2583C96.0959 76.3643 96.6542 81.6134 103.105 83.7627C105.537 84.5728 107.601 84.1185 109.449 82.9374Z" fill="#C66C60"/>
<path d="M41.8559 54.73C47.1316 56.7084 51.0281 56.9798 51.0281 58.5374C51.0281 60.095 46.5286 61.1333 44.2787 63.3832C42.0289 65.633 38.3944 67.0173 38.3944 64.2485C38.3944 61.4796 34.5005 60.441 34.5005 57.5854C34.5005 54.7297 39.0867 53.6917 41.8559 54.73Z" fill="#C66C60"/>
<path d="M91.9503 37.3294C86.7872 35.8567 78.3099 37.7264 74.1912 38.8168C72.1156 39.3665 70.5774 36.8515 72.0489 35.2874C73.0164 34.2589 74.6219 33.3351 76.8135 32.7502C80.0533 31.8858 82.3663 31.9454 84.269 32.0415C84.4506 32.1428 84.6323 32.2466 84.8142 32.3504C87.3399 33.8041 89.7256 35.4735 91.9503 37.3294Z" fill="#C66C60"/>
<path d="M97.3836 106.477C97.3785 106.479 97.3759 106.485 97.3706 106.487C92.4201 110.474 86.8182 113.693 80.7541 115.954C74.246 118.379 67.2061 119.706 59.8545 119.706C54.904 119.706 50.0938 119.104 45.4937 117.969C34.3753 115.236 24.4823 109.39 16.7828 101.412C16.7437 101.347 16.7049 101.283 16.6685 101.218C17.7692 98.5697 18.8725 95.8284 19.7785 93.4142C22.2109 86.9269 26.6422 90.9612 30.8863 90.0629C31.634 91.213 32.4283 92.3317 33.2669 93.4142C37.2724 98.5826 42.2645 102.946 47.9624 106.222C55.3063 110.444 63.8209 112.858 72.8989 112.858C81.7899 112.858 90.1435 110.54 97.3836 106.477Z" fill="#B75C53"/>
<path d="M80.754 115.955C74.246 118.379 67.206 119.706 59.8544 119.706C54.9039 119.706 50.0937 119.104 45.4937 117.969C49.2291 115.77 56.8924 114.262 65.7394 114.262C71.497 114.262 76.7563 114.901 80.754 115.955Z" fill="#FF9580"/>
<path d="M17.4549 70.3052C17.4549 73.4204 19.098 72.9011 19.098 75.0635C19.098 77.2285 13.1275 76.0163 12.0889 78.4382C11.6866 79.3779 10.8949 80.4968 10.0771 81.5169C9.93166 80.2605 9.83557 78.9912 9.78624 77.7088C9.76286 77.0754 9.75 76.4395 9.75 75.8007C9.75 73.5787 9.89542 71.3903 10.1758 69.2461C12.0733 67.3486 16.5746 64.179 19.7029 64.4202C22.8309 64.6643 17.4549 67.1901 17.4549 70.3052Z" fill="#B75C53"/>
</g>
<g clip-path="url(#clip1)">
<path d="M115.694 57.2093C116.705 57.5422 117.794 57.8317 118.965 58.0729C118.965 58.0729 119.613 56.5131 120.021 54.0967C120.928 48.7262 120.653 39.1185 109.449 32.9888C108.78 32.6236 108.071 32.269 107.322 31.9291C105.867 31.2688 104.17 32.1342 103.839 33.6977C103.695 34.3814 103.553 35.1658 103.436 36.0258C102.576 42.4721 103.253 53.1145 115.694 57.2093Z" fill="#368B4C"/>
<path d="M120.021 54.0972C120.928 48.7267 120.653 39.119 109.449 32.9893C109.422 33.1584 109.397 33.3311 109.374 33.5074C108.553 39.6642 109.132 49.6461 120.021 54.0972Z" fill="#3FA45A"/>
<path d="M126.229 62.8059C126.65 62.8059 127.064 62.61 127.327 62.2419L140.31 44.1021C140.744 43.496 140.604 42.6531 139.998 42.2194C139.392 41.786 138.549 41.925 138.115 42.5314L125.133 60.6712C124.699 61.2774 124.839 62.1201 125.445 62.5539C125.683 62.7241 125.957 62.8059 126.229 62.8059Z" fill="#368B4C"/>
<path d="M131.681 67.1748C140.733 82.5903 154.151 76.8922 159.632 73.6284C161.004 72.8098 161.276 70.9261 160.182 69.7619C159.263 68.7832 158.343 67.9195 157.428 67.1621C146.359 57.9934 135.832 64.1376 132.653 66.4209C132.023 66.8747 131.681 67.1748 131.681 67.1748Z" fill="#368B4C"/>
<path d="M132.653 66.4215C141.314 75.2284 152.009 70.5776 156.753 67.7511C157.021 67.591 157.248 67.3913 157.428 67.1628C146.359 57.9938 135.832 64.138 132.653 66.4215Z" fill="#3FA45A"/>
<path d="M124.902 63.6955C139.695 73.7331 149.369 62.8265 152.917 57.5243C153.806 56.1966 153.241 54.3793 151.753 53.7964C150.628 53.3557 149.544 53.0012 148.498 52.7223C136.195 49.4334 129.321 56.7002 126.476 60.9319C125.402 62.5295 124.902 63.6955 124.902 63.6955Z" fill="#4CBA68"/>
<path d="M126.477 60.9319C137.554 65.1457 145.08 57.4864 148.499 52.7223C136.196 49.4334 129.321 56.7002 126.477 60.9319Z" fill="#64C37D"/>
<path d="M124.345 63.3781C110.11 52.5642 117.357 39.9143 121.248 34.8589C122.223 33.5925 124.125 33.5479 125.153 34.7719C125.93 35.6969 126.612 36.6116 127.21 37.5133C134.255 48.1222 129.563 56.9573 126.461 61.0037C125.29 62.5317 124.345 63.3781 124.345 63.3781Z" fill="#4CBA68"/>
<path d="M126.461 61.0041C118.931 51.8517 123.786 42.2743 127.21 37.5137C134.255 48.1224 129.563 56.9575 126.461 61.0041Z" fill="#64C37D"/>
<path d="M82.3588 112.73C82.5548 113.267 82.7834 113.781 83.0444 114.276C85.369 118.691 90.1457 121.37 95.2248 120.958C114.787 119.366 132.457 106.876 132.457 106.876C146.538 97.5311 148.286 77.2418 135.784 68.2944L135.357 67.9904L126.23 61.4558L116.677 54.6188C104.174 45.6714 85.5005 53.8614 81.2309 70.2123C76.1893 89.5103 79.2624 104.258 82.3588 112.73Z" fill="#000209"/>
<path d="M82.3586 112.73C82.5547 113.267 82.7833 113.781 83.0442 114.276C85.1168 115.372 87.5044 115.895 89.9621 115.696C109.525 114.103 127.194 101.614 127.194 101.614C139.067 93.7331 142.173 78.073 135.357 67.9904L126.23 61.4558L116.677 54.6188C104.174 45.6714 85.5003 53.8614 81.2308 70.2123C76.1892 89.5103 79.2623 104.258 82.3586 112.73Z" fill="#008B8B"/>
<path d="M134.075 87.5795C134.803 88.1006 134.633 89.5858 133.694 90.8969C132.756 92.2079 131.405 92.8483 130.677 92.3273C129.949 91.8062 130.12 90.321 131.058 89.0099C131.996 87.6989 133.347 87.0585 134.075 87.5795Z" fill="black"/>
<path d="M128.141 72.6836C128.869 73.2046 128.699 74.6898 127.76 76.0009C126.822 77.3119 125.471 77.9523 124.743 77.4313C124.015 76.9102 124.185 75.425 125.124 74.1139C126.062 72.8029 127.413 72.1625 128.141 72.6836Z" fill="black"/>
<path d="M113.557 82.2514C114.285 82.7725 114.115 84.2577 113.176 85.5687C112.238 86.8798 110.887 87.5202 110.159 86.9991C109.431 86.4781 109.601 84.9929 110.54 83.6818C111.478 82.3708 112.829 81.7304 113.557 82.2514Z" fill="black"/>
<path d="M92.7767 60.1225C93.5047 60.6436 93.3343 62.1288 92.396 63.4398C91.4577 64.7509 90.1069 65.3913 89.3788 64.8702C88.6507 64.3492 88.8212 62.8639 89.7595 61.5529C90.6978 60.2419 92.0486 59.6015 92.7767 60.1225Z" fill="black"/>
<path d="M97.1746 78.1611C97.9027 78.6822 97.7323 80.1674 96.794 81.4784C95.8557 82.7894 94.5048 83.4299 93.7767 82.9088C93.0487 82.3877 93.2191 80.9025 94.1574 79.5915C95.0957 78.2804 96.4466 77.64 97.1746 78.1611Z" fill="black"/>
<path d="M88.0404 93.3759C88.7684 93.897 88.598 95.3822 87.6597 96.6933C86.7214 98.0043 85.3705 98.6447 84.6425 98.1236C83.9144 97.6026 84.0849 96.1174 85.0232 94.8063C85.9615 93.4953 87.3123 92.8549 88.0404 93.3759Z" fill="black"/>
<path d="M108.05 101.493C108.778 102.014 108.607 103.499 107.669 104.81C106.731 106.121 105.38 106.761 104.652 106.24C103.924 105.719 104.094 104.234 105.032 102.923C105.971 101.612 107.322 100.972 108.05 101.493Z" fill="black"/>
<path d="M93.9964 109.019C94.7245 109.54 94.554 111.025 93.6157 112.336C92.6774 113.647 91.3266 114.287 90.5985 113.766C89.8705 113.245 90.0409 111.76 90.9792 110.449C91.9175 109.138 93.2684 108.497 93.9964 109.019Z" fill="black"/>
<path d="M110.15 62.4287C110.878 62.9497 110.707 64.4349 109.769 65.746C108.831 67.057 107.48 67.6974 106.752 67.1764C106.024 66.6553 106.194 65.1701 107.133 63.8591C108.071 62.548 109.422 61.9076 110.15 62.4287Z" fill="black"/>
<path d="M126.522 101.65C127.25 102.171 127.079 103.656 126.141 104.967C125.203 106.278 123.852 106.919 123.124 106.398C122.396 105.877 122.566 104.391 123.505 103.08C124.443 101.769 125.794 101.129 126.522 101.65Z" fill="black"/>
</g>
<defs>
<clipPath id="clip0">
<rect width="119.706" height="119.706" fill="white"/>
</clipPath>
<clipPath id="clip1">
<rect width="89.2941" height="89.2941" fill="white" transform="matrix(-1 0 0 1 164.353 31.7056)"/>
</clipPath>
</defs>
</svg>
