<svg width="36" height="36" viewBox="0 0 36 36" fill="none" xmlns="http://www.w3.org/2000/svg">
<g clip-path="url(#clip0)">
<path d="M18.0023 35.9997C27.9433 35.9997 36.0021 27.9409 36.0021 17.9998C36.0021 8.0588 27.9433 0 18.0023 0C8.06124 0 0.00244141 8.0588 0.00244141 17.9998C0.00244141 27.9409 8.06124 35.9997 18.0023 35.9997Z" fill="#55ACEE"/>
<path d="M29.0257 12.9356C28.2544 13.2776 27.4246 13.5089 26.5544 13.6123C27.4429 13.08 28.1247 12.2377 28.4466 11.2324C27.6152 11.7256 26.694 12.0833 25.7144 12.2762C24.9296 11.4403 23.8114 10.918 22.5731 10.918C20.1975 10.918 18.2707 12.8448 18.2707 15.2204C18.2707 15.5577 18.3089 15.8859 18.3827 16.201C14.807 16.0216 11.6365 14.3089 9.5143 11.705C9.14402 12.3404 8.93161 13.08 8.93161 13.8683C8.93161 15.3607 9.69174 16.6781 10.8456 17.4495C10.1406 17.4273 9.47676 17.2339 8.89696 16.9108C8.89664 16.929 8.89663 16.9473 8.89663 16.9653C8.89663 19.05 10.3803 20.7887 12.3482 21.1837C11.9875 21.2825 11.6067 21.3348 11.2149 21.3348C10.937 21.3348 10.6678 21.3082 10.4053 21.2581C10.9527 22.9671 12.5413 24.2111 14.4245 24.246C12.9517 25.4002 11.0968 26.0878 9.08049 26.0878C8.73396 26.0878 8.39063 26.0676 8.05469 26.0275C9.95773 27.2487 12.2198 27.9607 14.6494 27.9607C22.5632 27.9607 26.891 21.4048 26.891 15.7187C26.891 15.5323 26.8868 15.3465 26.8785 15.1624C27.7198 14.5559 28.4491 13.7984 29.0257 12.9356Z" fill="#F1F2F2"/>
</g>
<defs>
<clipPath id="clip0">
<rect width="36" height="36" fill="white"/>
</clipPath>
</defs>
</svg>
