<svg width="36" height="36" viewBox="0 0 36 36" fill="none" xmlns="http://www.w3.org/2000/svg">
<path d="M18 36C27.9411 36 36 27.9411 36 18C36 8.05888 27.9411 0 18 0C8.05888 0 0 8.05888 0 18C0 27.9411 8.05888 36 18 36Z" fill="#4D76A1"/>
<path fill-rule="evenodd" clip-rule="evenodd" d="M17.3202 25.895H18.733C18.733 25.895 19.1598 25.8481 19.3776 25.6132C19.5782 25.3976 19.5717 24.9927 19.5717 24.9927C19.5717 24.9927 19.5442 23.097 20.424 22.8178C21.2913 22.5429 22.405 24.65 23.5855 25.4602C24.4781 26.0734 25.1564 25.9389 25.1564 25.9389L28.3128 25.895C28.3128 25.895 29.964 25.7932 29.1811 24.495C29.1169 24.3888 28.7251 23.5347 26.8343 21.7795C24.8551 19.9425 25.1202 20.2397 27.5042 17.0621C28.9561 15.127 29.5366 13.9455 29.3553 13.4395C29.1824 12.9576 28.1145 13.085 28.1145 13.085L24.5606 13.1071C24.5606 13.1071 24.2972 13.0712 24.1017 13.188C23.9108 13.3025 23.7879 13.5695 23.7879 13.5695C23.7879 13.5695 23.2255 15.067 22.4753 16.3405C20.8928 19.0278 20.26 19.1696 20.0014 19.0027C19.3998 18.6138 19.5499 17.4404 19.5499 16.6068C19.5499 14.0027 19.9449 12.9168 18.7808 12.6358C18.3945 12.5424 18.1102 12.4808 17.1222 12.4708C15.8542 12.4577 14.7809 12.4747 14.1732 12.7725C13.7689 12.9704 13.457 13.4116 13.6469 13.437C13.8818 13.4684 14.4138 13.5804 14.6959 13.9645C15.06 14.4599 15.0472 15.5727 15.0472 15.5727C15.0472 15.5727 15.2564 18.6382 14.5585 19.0191C14.0795 19.2803 13.4223 18.747 12.0115 16.309C11.2886 15.0602 10.7428 13.6799 10.7428 13.6799C10.7428 13.6799 10.6375 13.4219 10.4498 13.2839C10.222 13.1167 9.9037 13.0635 9.9037 13.0635L6.52658 13.0856C6.52658 13.0856 6.01961 13.0997 5.83351 13.3202C5.66794 13.5162 5.82035 13.9218 5.82035 13.9218C5.82035 13.9218 8.46429 20.1075 11.458 23.2247C14.203 26.0827 17.3202 25.895 17.3202 25.895Z" fill="white"/>
</svg>
