<svg width="21" height="25" viewBox="0 0 21 25" fill="none" xmlns="http://www.w3.org/2000/svg">
<path d="M13.606 9.05762C13.2826 9.05762 13.0205 9.31971 13.0205 9.6431V20.7087C13.0205 21.0318 13.2826 21.2942 13.606 21.2942C13.9294 21.2942 14.1915 21.0318 14.1915 20.7087V9.6431C14.1915 9.31971 13.9294 9.05762 13.606 9.05762Z" fill="white"/>
<path d="M6.69681 9.05762C6.37342 9.05762 6.11133 9.31971 6.11133 9.6431V20.7087C6.11133 21.0318 6.37342 21.2942 6.69681 21.2942C7.02019 21.2942 7.28229 21.0318 7.28229 20.7087V9.6431C7.28229 9.31971 7.02019 9.05762 6.69681 9.05762Z" fill="white"/>
<path d="M1.66285 7.44274V21.8677C1.66285 22.7203 1.97549 23.521 2.52163 24.0955C3.06526 24.6716 3.82181 24.9986 4.61357 25H15.691C16.483 24.9986 17.2396 24.6716 17.7829 24.0955C18.3291 23.521 18.6417 22.7203 18.6417 21.8677V7.44274C19.7274 7.15458 20.4309 6.10575 20.2856 4.99174C20.1402 3.87796 19.1913 3.04479 18.0679 3.04456H15.0703V2.31272C15.0737 1.69728 14.8304 1.10631 14.3947 0.671547C13.959 0.237013 13.3672 -0.00495453 12.7517 7.6927e-05H7.55286C6.93742 -0.00495453 6.34554 0.237013 5.90986 0.671547C5.47418 1.10631 5.23084 1.69728 5.23427 2.31272V3.04456H2.23667C1.11328 3.04479 0.164395 3.87796 0.0189405 4.99174C-0.126285 6.10575 0.577203 7.15458 1.66285 7.44274ZM15.691 23.829H4.61357C3.61254 23.829 2.83381 22.9691 2.83381 21.8677V7.4942H17.4708V21.8677C17.4708 22.9691 16.692 23.829 15.691 23.829ZM6.40523 2.31272C6.40134 2.00786 6.52118 1.71443 6.73753 1.49922C6.95366 1.28401 7.24777 1.16577 7.55286 1.17103H12.7517C13.0568 1.16577 13.3509 1.28401 13.567 1.49922C13.7834 1.7142 13.9032 2.00786 13.8994 2.31272V3.04456H6.40523V2.31272ZM2.23667 4.21552H18.0679C18.65 4.21552 19.1218 4.68733 19.1218 5.26938C19.1218 5.85143 18.65 6.32324 18.0679 6.32324H2.23667C1.65462 6.32324 1.18281 5.85143 1.18281 5.26938C1.18281 4.68733 1.65462 4.21552 2.23667 4.21552Z" fill="white"/>
<path d="M10.1529 9.05762C9.82948 9.05762 9.56738 9.31971 9.56738 9.6431V20.7087C9.56738 21.0318 9.82948 21.2942 10.1529 21.2942C10.4762 21.2942 10.7383 21.0318 10.7383 20.7087V9.6431C10.7383 9.31971 10.4762 9.05762 10.1529 9.05762Z" fill="white"/>
</svg>
