<svg width="49" height="28" viewBox="0 0 49 28" fill="none" xmlns="http://www.w3.org/2000/svg">
<path d="M37.0058 10.8589L39.1167 6.97352C39.4152 6.42482 40.1041 6.22231 40.6467 6.52146C41.1948 6.81711 41.3998 7.50251 41.101 8.05312L38.9924 11.9385C38.787 12.3143 38.4011 12.5301 37.9992 12.5301C37.8133 12.5301 37.6292 12.4847 37.4547 12.3906C36.912 12.0968 36.7073 11.4124 37.0058 10.8589ZM30.8308 8.87808C30.9243 8.90319 31.0149 8.91368 31.1052 8.91368C31.6116 8.91368 32.0707 8.57353 32.2026 8.06011L33.2816 3.76683C33.4316 3.15964 33.0676 2.54736 32.461 2.39444C31.8287 2.25012 31.239 2.61284 31.0861 3.21559L30.0059 7.50823C29.8584 8.11066 30.224 8.72485 30.8308 8.87808ZM14.3781 6.40606C14.5081 6.9182 14.9659 7.25963 15.4736 7.25963C15.5642 7.25963 15.6589 7.24787 15.7495 7.22562C16.3567 7.0708 16.7201 6.45057 16.5703 5.85227L15.4841 1.55931C15.3296 0.957523 14.7395 0.568727 14.1107 0.734673C13.5035 0.891399 13.1399 1.50972 13.2899 2.10801L14.3781 6.40606ZM23.1023 6.68168C23.7295 6.68168 24.2356 6.17368 24.2356 5.54677V1.13332C24.2356 0.508008 23.7279 0 23.1023 0C22.4786 0 21.9715 0.508008 21.9715 1.13332V5.54645C21.9718 6.17368 22.4786 6.68168 23.1023 6.68168ZM47.7735 20.753C48.2227 21.1914 48.2424 21.9048 47.8104 22.3518C47.5846 22.5864 47.2919 22.6999 46.9943 22.6999C46.7133 22.6999 46.4313 22.5937 46.21 22.3848C46.17 22.3413 44.5763 20.8646 42.1326 18.9909C36.9937 22.7361 29.0423 27.3861 21.117 27.3861C13.3967 27.3861 7.691 23.0197 4.17467 19.2897C2.88812 20.8853 2.12929 22.0993 2.10417 22.141C1.78945 22.6735 1.09769 22.8563 0.565521 22.5485C0.0234962 22.2386 -0.161841 21.5465 0.154472 21.0067C0.25334 20.8363 1.14824 19.3927 2.64079 17.5625C1.1441 15.7397 0.250161 14.292 0.154472 14.1162C-0.161523 13.5773 0.0276289 12.89 0.565521 12.5807C1.09769 12.2587 1.79104 12.4472 2.10417 12.9876C2.12929 13.0254 2.8878 14.2395 4.17467 15.8367C7.69132 12.1035 13.397 7.74157 21.117 7.74157C29.0423 7.74157 36.9937 12.3928 42.1326 16.1358C44.5766 14.257 46.17 12.7857 46.21 12.74C46.6707 12.314 47.3755 12.328 47.8104 12.7765C48.2421 13.2308 48.2227 13.9404 47.7735 14.3753C47.604 14.5355 46.1671 15.8643 44.0057 17.5654C46.1671 19.264 47.6066 20.5928 47.7735 20.753ZM40.1737 17.566C35.2662 14.0834 28.0877 10.006 21.117 10.006C14.1715 10.006 8.91493 14.1254 5.70061 17.566C8.91779 21.0112 14.1715 25.1261 21.117 25.1261C28.0877 25.1261 35.2662 21.0484 40.1737 17.566ZM6.02837 11.2951C6.23182 11.6718 6.61839 11.8832 7.02277 11.8832C7.20779 11.8832 7.39153 11.8425 7.56606 11.7484C8.11222 11.4509 8.31568 10.7629 8.01876 10.2142L5.90724 6.32977C5.60969 5.78075 4.91857 5.56521 4.37559 5.87485C3.82689 6.17399 3.62502 6.85844 3.92258 7.40905L6.02837 11.2951ZM15.9186 17.6061C15.9186 20.76 18.4806 23.3086 21.6352 23.3086C24.79 23.3086 27.3425 20.7575 27.3425 17.6061C27.3425 14.4417 24.7862 11.8899 21.6352 11.8899C18.479 11.8899 15.9186 14.4417 15.9186 17.6061Z" fill="#2F3F53"/>
</svg>
