<svg width="48" height="78" viewBox="0 0 48 78" fill="none" xmlns="http://www.w3.org/2000/svg">
<path d="M45.3229 23.004H34.0366L47.6088 3.46127C48.1034 2.75378 48.1164 1.8746 47.6425 1.15828C47.1687 0.441951 46.2836 0 45.3229 0H23.9948H13.3308C12.1071 0 11.0423 0.714191 10.7454 1.7317L0.081385 38.4467C-0.119099 39.1295 0.0605899 39.8527 0.565711 40.406C1.07083 40.9616 1.84664 41.2852 2.66671 41.2852H14.8148L0.170075 74.9117C-0.298611 75.9829 0.229971 77.1858 1.40408 77.728C2.58353 78.2697 4.04273 77.9798 4.82245 77.0584L23.9948 54.3099L47.4787 26.6326C48.0696 25.9385 48.153 25.0191 47.7 24.2514C47.2444 23.486 46.3254 23.004 45.3229 23.004Z" fill="#FED843"/>
</svg>
