<svg width="17" height="17" viewBox="0 0 17 17" fill="none" xmlns="http://www.w3.org/2000/svg">
<path d="M14.4375 16.5H2.0625C0.925833 16.5 0 15.8063 0 14.9531V7.73438C0 6.88119 0.925833 6.1875 2.0625 6.1875H14.4375C15.5742 6.1875 16.5 6.88119 16.5 7.73438V14.9531C16.5 15.8063 15.5742 16.5 14.4375 16.5ZM2.0625 7.21875C1.68392 7.21875 1.375 7.44975 1.375 7.73438V14.9531C1.375 15.2378 1.68392 15.4688 2.0625 15.4688H14.4375C14.8161 15.4688 15.125 15.2378 15.125 14.9531V7.73438C15.125 7.44975 14.8161 7.21875 14.4375 7.21875H2.0625Z" fill="black"/>
<path d="M13.0625 7.21875C12.683 7.21875 12.375 6.98775 12.375 6.70313V4.125C12.375 2.41931 10.5243 1.03125 8.25 1.03125C5.97575 1.03125 4.125 2.41931 4.125 4.125V6.70313C4.125 6.98775 3.817 7.21875 3.4375 7.21875C3.058 7.21875 2.75 6.98775 2.75 6.70313V4.125C2.75 1.85006 5.21675 0 8.25 0C11.2832 0 13.75 1.85006 13.75 4.125V6.70313C13.75 6.98775 13.442 7.21875 13.0625 7.21875Z" fill="black"/>
<path d="M8.24994 11.6875C7.23887 11.6875 6.41663 11.0708 6.41663 10.3125C6.41663 9.55419 7.23887 8.9375 8.24994 8.9375C9.26101 8.9375 10.0833 9.55419 10.0833 10.3125C10.0833 11.0708 9.26101 11.6875 8.24994 11.6875ZM8.24994 9.96875C7.99786 9.96875 7.79161 10.1228 7.79161 10.3125C7.79161 10.5023 7.99786 10.6563 8.24994 10.6563C8.50202 10.6563 8.70827 10.5023 8.70827 10.3125C8.70827 10.1228 8.50202 9.96875 8.24994 9.96875Z" fill="black"/>
<path d="M8.25 13.75C7.8705 13.75 7.5625 13.519 7.5625 13.2344V11.3437C7.5625 11.0591 7.8705 10.8281 8.25 10.8281C8.6295 10.8281 8.9375 11.0591 8.9375 11.3437V13.2344C8.9375 13.519 8.6295 13.75 8.25 13.75Z" fill="black"/>
</svg>
