<svg width="20" height="20" viewBox="0 0 20 20" fill="none" xmlns="http://www.w3.org/2000/svg">
<g clip-path="url(#clip0)">
<path d="M18.1133 6.35371L17.2848 0.553281C17.2167 0.0777344 16.6322 -0.119883 16.2903 0.221992L15.0835 1.42879C13.5317 0.492656 11.7699 0 9.95827 0C4.5103 0 0.136357 4.26406 0.000185344 9.70746C-0.00723653 10.005 0.209053 10.2602 0.503154 10.3025L2.8446 10.6373C3.19366 10.6882 3.51839 10.4141 3.51354 10.0491C3.46499 6.45648 6.36663 3.51562 9.95827 3.51562C10.828 3.51562 11.6875 3.69242 12.4817 4.03059L11.3184 5.19387C10.9787 5.53359 11.1715 6.11988 11.6497 6.18836L17.4501 7.01691C17.8323 7.07453 18.1682 6.74215 18.1133 6.35371Z" fill="white" fill-opacity="0.5"/>
<path d="M19.4961 9.74264L17.1564 9.40846C16.8541 9.37018 16.4875 9.6292 16.4875 10.039C16.4875 13.593 13.5961 16.4844 10.0422 16.4844C9.17703 16.4844 8.32156 16.3093 7.53024 15.9745L8.65633 14.8484C8.99606 14.5087 8.80324 13.9224 8.32504 13.8539L2.52461 13.0248C2.14364 12.9704 1.80625 13.2971 1.86141 13.688L2.68992 19.4885C2.75813 19.9645 3.34211 20.1608 3.68442 19.8198L4.92039 18.5844C6.46477 19.5119 8.22543 20 10.0422 20C15.4638 20 19.8372 15.7571 19.9991 10.3406C20.0077 10.0425 19.7914 9.78499 19.4961 9.74264Z" fill="white" fill-opacity="0.5"/>
</g>
<defs>
<clipPath id="clip0">
<rect width="20" height="20" fill="white"/>
</clipPath>
</defs>
</svg>
