<svg width="231" height="231" viewBox="0 0 231 231" fill="none" xmlns="http://www.w3.org/2000/svg">
<path d="M197.171 149.329C184.591 136.749 169.618 127.437 153.281 121.799C170.778 109.748 182.273 89.5793 182.273 66.7734C182.273 29.9547 152.319 0 115.5 0C78.6812 0 48.7266 29.9547 48.7266 66.7734C48.7266 89.5793 60.222 109.748 77.7198 121.799C61.3828 127.437 46.4093 136.749 33.8293 149.329C12.0143 171.144 0 200.149 0 231H18.0469C18.0469 177.264 61.7641 133.547 115.5 133.547C169.236 133.547 212.953 177.264 212.953 231H231C231 200.149 218.986 171.144 197.171 149.329ZM115.5 115.5C88.6323 115.5 66.7734 93.6416 66.7734 66.7734C66.7734 39.9053 88.6323 18.0469 115.5 18.0469C142.368 18.0469 164.227 39.9053 164.227 66.7734C164.227 93.6416 142.368 115.5 115.5 115.5Z" fill="white" fill-opacity="0.5"/>
</svg>
