<svg width="47" height="51" viewBox="0 0 47 51" fill="none" xmlns="http://www.w3.org/2000/svg">
<path d="M34.9969 17.0749C35.8 15.032 36.2123 12.8564 36.2123 10.6612V8.65372C36.2123 4.48326 32.8315 1.10254 28.6611 1.10254C27.6802 1.10254 26.7905 1.4909 26.1365 2.12222C25.696 2.54741 25.0119 2.54741 24.5714 2.12222C23.9175 1.4909 23.0278 1.10254 22.0469 1.10254C15.6239 1.10254 10.417 6.30944 10.417 12.7325C10.417 14.2611 10.7119 15.7207 11.248 17.0578L34.9969 17.0749Z" fill="#A7BDCD"/>
<path d="M17.7482 37.6943C14.172 38.5511 10.8042 39.9439 7.73479 41.7834C3.61769 44.2511 1.10254 48.7034 1.10254 53.5033V54.898H45.197V53.5033C45.197 48.7034 42.6819 44.2511 38.5648 41.7834C35.4954 39.9438 32.1275 38.5511 28.5514 37.6943H17.7482Z" fill="#BFDBFF"/>
<path d="M36.9581 16.9808C36.2985 16.7008 35.5811 16.7596 34.9968 17.0767C34.7074 14.9664 33.3534 13.1918 31.4935 12.3195C29.8889 11.5669 28.9224 9.96235 28.882 8.16064C28.8056 11.6263 26.0677 14.4409 22.5985 14.4409C21.0918 14.4409 19.7031 13.9176 18.6206 13.0335C17.8467 12.4013 16.8594 12.0202 15.783 12.0158C13.2864 12.0054 11.2442 14.1286 11.2442 16.6252V17.0592C10.6719 16.772 9.9824 16.7273 9.34689 16.9971C8.19801 17.4848 7.61651 18.8318 8.14973 19.9602C8.84157 21.4246 10.4569 24.2384 11.1487 25.7028C11.4218 26.2807 12.078 26.5657 12.6665 26.316C13.4789 28.6318 14.6179 30.7942 16.0285 32.7476C16.5332 33.4465 17.1139 34.0447 17.7482 34.5431V37.811C17.7482 40.7942 20.1666 43.2126 23.1498 43.2126C26.133 43.2126 28.5514 40.7942 28.5514 37.811V34.5425C29.1864 34.0436 29.7677 33.4448 30.2728 32.7451C31.686 30.7875 32.8265 28.6202 33.6389 26.2997C34.2273 26.5495 34.8833 26.2645 35.1564 25.6864C35.8482 24.2221 37.4635 21.4084 38.1554 19.9439C38.6885 18.8154 38.107 17.4684 36.9581 16.9808Z" fill="#FFDA8F"/>
<path d="M24.263 54.8976C24.263 55.505 23.768 56 23.1595 56C22.5521 56 22.0572 55.505 22.0572 54.8976C22.0572 54.2902 22.5521 53.7953 23.1595 53.7953C23.768 53.7953 24.263 54.2902 24.263 54.8976ZM0 54.8976V53.5032C0 46.1535 4.98488 42.1455 7.16756 40.837C10.1319 39.0611 13.316 37.7184 16.6457 36.8362V35.0613C16.0905 34.5713 15.583 34.014 15.1346 33.393C13.8141 31.5643 12.7365 29.5816 11.9243 27.4882C11.1809 27.3866 10.5013 26.9136 10.1519 26.1736C9.81863 25.4682 7.50709 21.1921 7.1529 20.4312C6.25502 18.5019 7.42849 16.596 8.91613 15.9824C9.16383 15.8802 9.41847 15.8047 9.67753 15.7616C9.43666 14.7762 9.31496 13.7628 9.31496 12.7324C9.31496 5.71167 15.0266 0 22.0472 0C23.281 0 24.4495 0.471921 25.3374 1.32879C25.3468 1.33794 25.3617 1.33794 25.3712 1.32879C26.2593 0.471921 27.4277 0 28.6614 0C33.433 0 37.315 3.88197 37.315 8.65354V10.6611C37.315 12.3897 37.0776 14.0913 36.6092 15.7406C36.8739 15.7835 37.1381 15.8526 37.3888 15.9661C39.2192 16.7949 39.934 18.8432 39.1519 20.4149C38.7781 21.1661 36.4863 25.4516 36.153 26.1573C35.8036 26.8969 35.1242 27.3699 34.3815 27.4717C33.5688 29.5702 32.4895 31.5575 31.1664 33.3903C30.7174 34.0122 30.2094 34.5702 29.6535 35.0607V36.8361C32.9831 37.7183 36.1673 39.061 39.1317 40.8369C41.3143 42.1454 46.2992 46.1534 46.2992 53.503V54.8976C46.2992 55.5065 45.8057 56 45.1968 56H28.1224C28.1213 56 28.1213 56 28.1202 56C27.4884 56 26.9782 55.4657 27.0202 54.8239C27.0586 54.238 27.5717 53.7953 28.1589 53.7953H44.0945C44.0945 49.1404 41.7586 44.9819 37.9973 42.7287C35.3421 41.1375 32.4984 39.9147 29.5273 39.0857C28.9332 42.0636 26.2997 44.315 23.1496 44.315C19.9996 44.315 17.3661 42.0637 16.7719 39.0857C13.8015 39.9147 10.957 41.1375 8.30189 42.7287C4.54063 44.9819 2.20472 49.0125 2.20472 53.7953H29.6936C30.3263 53.7953 30.8358 54.3323 30.7923 54.9743C30.7525 55.5591 30.2397 56 29.6535 56H1.10236C0.493528 56 0 55.5065 0 54.8976ZM11.5237 12.9013C11.6254 12.7817 13.1466 10.9134 15.7646 10.9134C17.0704 10.9134 18.3247 11.3684 19.3179 12.1798C20.2329 12.9271 21.3978 13.3386 22.5984 13.3386C25.4395 13.3386 27.7155 11.0535 27.7798 8.13643C27.793 7.53729 28.2823 7.05842 28.8817 7.05831C29.4809 7.0582 29.9705 7.53685 29.984 8.13598C30.0157 9.5437 30.7733 10.7643 31.9616 11.3216C33.1302 11.8697 34.1081 12.6994 34.8253 13.7147C35.0149 12.7123 35.1103 11.6922 35.1103 10.6612V8.65354C35.1103 5.09765 32.2174 2.20472 28.6615 2.20472C28.0019 2.20472 27.3772 2.45706 26.9024 2.9152C26.0344 3.75321 24.6744 3.7531 23.8063 2.9152C23.3316 2.45706 22.7069 2.20472 22.0472 2.20472C16.2423 2.20472 11.4681 6.86661 11.5237 12.9013ZM27.4488 36.5293C24.8388 37.7613 21.8232 37.9035 18.8504 36.5297V37.811C18.8504 40.1817 20.779 42.1102 23.1496 42.1102C25.5202 42.1102 27.4488 40.1817 27.4488 37.811V36.5293ZM29.3788 32.0999C30.7462 30.2058 31.8303 28.1322 32.5983 25.9355C32.7331 25.55 33.2452 24.9667 34.1128 25.3081C34.5218 24.4369 36.8247 20.1786 37.1585 19.4731C37.4128 18.9357 37.1053 18.2358 36.5273 17.9955C36.2009 17.8598 35.8398 17.8835 35.5224 18.0457C34.8382 18.3952 33.9919 17.9827 33.9046 17.2265C33.7063 15.5098 32.5934 14.0531 31.0253 13.3177C30.2327 12.946 29.5568 12.4008 29.0302 11.7335C28.6985 12.3304 28.2679 12.8673 27.7951 13.3768C25.7028 15.6323 21.3288 16.6351 17.9232 13.8874C16.5946 12.8155 14.6188 12.88 13.3997 14.1167C12.7365 14.7895 12.3465 15.6976 12.3465 16.6255V17.0595C12.35 17.8692 11.4895 18.4097 10.7496 18.0448C10.4431 17.8937 10.0928 17.8869 9.77751 18.0122C9.27759 18.2106 8.85087 18.8578 9.1463 19.4897C9.47701 20.1969 11.8308 24.519 12.1793 25.3084C13.1501 24.9705 13.6057 25.6639 13.7066 25.9514C14.4753 28.1428 15.5572 30.2123 16.922 32.1026C18.3898 34.1353 20.6597 35.3012 23.1493 35.3009C25.6398 35.3005 27.9105 34.1339 29.3788 32.0999Z" fill="black"/>
</svg>
