<svg width="16" height="16" viewBox="0 0 16 16" fill="none" xmlns="http://www.w3.org/2000/svg">
<path d="M8.93806 8.00416L15.7966 1.14562C16.0613 0.889967 16.0687 0.468147 15.813 0.203437C15.5574 -0.0612739 15.1355 -0.0686139 14.8708 0.187039C14.8653 0.192388 14.8598 0.197854 14.8544 0.203437L7.99584 7.06198L1.13729 0.203398C0.87258 -0.052255 0.45076 -0.0449149 0.195107 0.219796C-0.0542989 0.478025 -0.0542989 0.88739 0.195107 1.14562L7.05366 8.00416L0.195107 14.8627C-0.0650357 15.1229 -0.0650357 15.5447 0.195107 15.8049C0.455289 16.065 0.877109 16.065 1.13729 15.8049L7.99584 8.94635L14.8544 15.8049C15.1191 16.0605 15.5409 16.0532 15.7966 15.7885C16.0459 15.5303 16.0459 15.1209 15.7966 14.8627L8.93806 8.00416Z" fill="white"/>
</svg>
