<svg width="32" height="32" viewBox="0 0 32 32" fill="none" xmlns="http://www.w3.org/2000/svg">
<path d="M31.664 14.1317C31.3352 13.4528 30.787 12.9046 30.1081 12.5759L4.814 0.336185C3.14774 -0.471082 1.14264 0.225332 0.335372 1.89159C-0.0758892 2.74057 -0.110461 3.72357 0.240234 4.59933L4.63859 15.5931L0.240234 26.5879C-0.444852 28.3126 0.397968 30.2662 2.1227 30.9512C2.51268 31.1061 2.92826 31.1866 3.34791 31.1885C3.85561 31.1885 4.35678 31.0739 4.814 30.8533L30.108 18.6102C31.7744 17.8032 32.4711 15.7981 31.664 14.1317ZM3.84069 28.8385C3.28518 29.1074 2.61685 28.8751 2.34794 28.3196C2.2109 28.0366 2.1995 27.7089 2.31645 27.417L6.59858 16.7105H28.9045L3.84069 28.8385ZM6.59864 14.4756L2.31651 3.76902C2.13828 3.34224 2.24894 2.84939 2.5925 2.53981C2.92506 2.21577 3.4272 2.13975 3.84069 2.35098L28.9045 14.4756H6.59864Z" fill="black" fill-opacity="0.3"/>
</svg>
