<svg height="512pt" viewBox="0 0 512 512" width="512pt" xmlns="http://www.w3.org/2000/svg"><path d="m466.917969 226.320312c-10.371094 1.300782-19.855469-5.523437-22.289063-15.695312-4.636718-19.359375-12.289062-38.117188-22.953125-55.578125-5.429687-8.878906-3.511719-20.375 4.707031-26.765625l32.652344-25.378906-49.9375-49.9375-25.390625 32.644531c-6.390625 8.21875-17.875 10.132813-26.761719 4.707031-17.460937-10.664062-36.222656-18.308594-55.582031-22.953125-10.160156-2.4375-16.984375-11.917969-15.695312-22.289062l5.640625-45.074219h-70.617188l5.628906 45.082031c1.300782 10.371094-5.523437 19.855469-15.695312 22.289063-19.347656 4.636718-38.117188 12.289062-55.578125 22.953125-8.878906 5.429687-20.375 3.511719-26.765625-4.707031l-25.378906-32.652344-49.9375 49.9375 32.644531 25.390625c8.21875 6.390625 10.132813 17.875 4.707031 26.761719-10.664062 17.460937-18.308594 36.222656-22.953125 55.582031-2.4375 10.167969-11.917969 16.984375-22.289062 15.695312l-45.074219-5.640625v70.617188l45.082031-5.628906c10.371094-1.300782 19.855469 5.523437 22.289063 15.695312 4.636718 19.359375 12.289062 38.117188 22.953125 55.578125 5.429687 8.878906 3.503906 20.375-4.707031 26.765625l-32.652344 25.378906 49.9375 49.9375 25.390625-32.644531c6.390625-8.21875 17.875-10.132813 26.761719-4.707031 17.460937 10.664062 36.222656 18.308594 55.582031 22.953125 10.167969 2.4375 16.992187 11.917969 15.695312 22.289062l-5.640625 45.074219h70.617188l-5.628906-45.082031c-1.300782-10.371094 5.523437-19.855469 15.695312-22.289063 19.359375-4.636718 38.117188-12.289062 55.578125-22.953125 8.878906-5.429687 20.375-3.511719 26.765625 4.707031l25.378906 32.652344 49.9375-49.9375-32.644531-25.390625c-8.21875-6.390625-10.132813-17.875-4.707031-26.761719 10.664062-17.460937 18.308594-36.222656 22.953125-55.582031 2.4375-10.167969 11.917969-16.984375 22.289062-15.695312l45.074219 5.640625v-70.617188zm0 0" fill="#28384c"/><path d="m140.71875 335.238281c58.539062 68.121094 176.199219 79.4375 235.714844 2.574219 5.066406-6.539062 11.902344-6.011719 16.914062-2.152344 13.621094-23.445312 21.550782-50.601562 21.550782-79.660156 0-87.753906-71.144532-158.898438-158.898438-158.898438s-158.898438 71.144532-158.898438 158.898438c0 29.730469 8.316407 57.457031 22.53125 81.257812 4.695313-6.816406 14.210938-10.027343 21.085938-2.019531zm0 0" fill="#fff"/><path d="m203.035156 256h-17.671875c-19.492187 0-35.292969-15.800781-35.292969-35.292969v-17.671875h17.671876c19.492187 0 35.292968 15.800782 35.292968 35.292969zm0 0" fill="#1a9172"/><path d="m256 211.863281-14.769531-14.769531c-13.777344-13.78125-13.777344-36.132812 0-49.921875l14.769531-14.757813 14.769531 14.769532c13.777344 13.777344 13.777344 36.128906 0 49.917968zm0 0" fill="#23a24d"/><path d="m256 308.964844c-2.066406 0-4.132812-.722656-5.808594-2.1875l-70.621094-61.792969c-3.671874-3.214844-4.042968-8.785156-.828124-12.457031 3.210937-3.65625 8.792968-4.035156 12.453124-.828125l70.621094 61.792969c3.671875 3.210937 4.042969 8.78125.832032 12.453124-1.75 1.996094-4.195313 3.019532-6.648438 3.019532zm0 0" fill="#be7c6d"/><path d="m308.964844 256h17.671875c19.492187 0 35.292969-15.800781 35.292969-35.292969v-17.671875h-17.671876c-19.492187 0-35.292968 15.800782-35.292968 35.292969zm0 0" fill="#61b872"/><path d="m256 308.964844c-2.464844 0-4.898438-1.023438-6.648438-3.007813-3.210937-3.675781-2.839843-9.246093.832032-12.457031l70.621094-61.792969c3.671874-3.214843 9.242187-2.84375 12.453124.828125 3.214844 3.671875 2.84375 9.242188-.828124 12.457032l-70.621094 61.792968c-1.667969 1.457032-3.742188 2.179688-5.808594 2.179688zm0 0" fill="#be7c6d"/><path d="m256 308.964844c-4.871094 0-8.828125-3.953125-8.828125-8.828125v-114.757813c0-4.871094 3.957031-8.828125 8.828125-8.828125s8.828125 3.957031 8.828125 8.828125v114.757813c0 4.875-3.957031 8.828125-8.828125 8.828125zm0 0" fill="#be7c6d"/><path d="m256 300.136719c-56.636719 0-106.917969 12.722656-139.21875 32.417969 27.039062 49.070312 79.226562 82.34375 139.21875 82.34375s112.179688-33.273438 139.21875-82.34375c-32.300781-19.695313-82.582031-32.417969-139.21875-32.417969zm0 0" fill="#6c4127"/></svg>